<svg width="174" height="179" xmlns="http://www.w3.org/2000/svg" xmlns:xlink="http://www.w3.org/1999/xlink" xml:space="preserve" overflow="hidden"><g transform="translate(-1705 -623)"><g><path d="M1710.5 713C1710.5 667.436 1747.44 630.5 1793 630.5 1838.56 630.5 1875.5 667.436 1875.5 713 1875.5 758.563 1838.56 795.5 1793 795.5 1747.44 795.5 1710.5 758.563 1710.5 713Z" stroke="#042433" stroke-width="6.875" stroke-linecap="butt" stroke-linejoin="miter" stroke-miterlimit="8" stroke-opacity="1" fill="#E59EDD" fill-rule="evenodd" fill-opacity="1"/><g><g><g><path d="M1821.17 732.988C1827.8 725.391 1838.91 712.689 1838.91 698.75 1838.92 673.121 1818.16 652.332 1792.53 652.317 1769.64 652.304 1750.16 668.982 1746.64 691.6 1744.93 703.219 1749.53 714.374 1753.23 723.311 1754.57 726.254 1755.66 729.3 1756.51 732.42 1756.89 734.311 1757.28 736.975 1757.71 739.811 1759.95 754.695 1761.82 764.716 1767.22 768.239 1772.77 772.124 1779.35 774.272 1786.12 774.409L1787.64 774.409C1818.68 772.691 1818.18 748.852 1817.99 739.863 1817.99 738.866 1817.99 737.56 1817.99 736.855 1818.56 735.995 1820 734.345 1821.17 732.988ZM1770.65 695.897C1777.08 688.369 1787.22 685.144 1796.81 687.578 1810.22 691.261 1818.13 705.092 1814.5 718.516 1812.49 725.872 1804.94 730.891 1800.42 733.984 1799.74 734.431 1798.93 734.981 1798.46 735.308 1798.46 735.669 1798.24 736.185 1798.14 736.58 1797.09 740.791 1794.49 751.138 1782.57 751.138 1780.7 751.098 1778.84 750.856 1777.03 750.416 1774.06 749.643 1771.55 747.635 1770.16 744.899 1768.44 741.721 1768.2 737.954 1769.5 734.586 1770.07 732.773 1771.99 731.759 1773.81 732.322 1775.62 732.885 1776.63 734.811 1776.07 736.624 1776.03 736.749 1775.98 736.872 1775.93 736.992 1775.31 738.518 1775.41 740.242 1776.21 741.685 1776.67 742.648 1777.48 743.398 1778.48 743.781 1787.93 745.827 1789.89 741.203 1791.45 734.93 1791.66 733.5 1792.21 732.143 1793.07 730.977 1794.1 729.939 1795.25 729.033 1796.5 728.278 1800.22 725.803 1806.44 721.678 1807.76 716.814 1810.42 707.048 1804.67 696.977 1794.91 694.299 1787.88 692.586 1780.48 694.972 1775.78 700.469 1773.3 703.157 1771.44 706.354 1770.33 709.836 1771.19 711.675 1772.26 713.405 1773.53 714.992 1774.71 716.473 1774.47 718.635 1772.99 719.822 1772.38 720.311 1771.63 720.578 1770.84 720.578 1769.79 720.583 1768.8 720.108 1768.15 719.289 1756.92 705.285 1759.17 684.829 1773.17 673.601 1787.18 662.372 1807.63 664.622 1818.86 678.626 1821.79 682.285 1823.9 686.535 1825.04 691.084 1825.51 692.926 1824.4 694.804 1822.56 695.278 1820.72 695.753 1818.84 694.645 1818.37 692.803 1814.97 679.064 1801.08 670.682 1787.34 674.081 1775.69 676.962 1767.61 687.532 1767.87 699.524 1768.72 698.258 1769.65 697.047 1770.65 695.897Z" fill="#000000" fill-rule="nonzero" fill-opacity="1"/></g></g></g></g></g></svg>