<svg width="179" height="179" xmlns="http://www.w3.org/2000/svg" xmlns:xlink="http://www.w3.org/1999/xlink" xml:space="preserve" overflow="hidden"><g transform="translate(-2589 -705)"><g><path d="M2595.5 796C2595.5 750.437 2632.44 713.5 2678 713.5 2723.56 713.5 2760.5 750.437 2760.5 796 2760.5 841.564 2723.56 878.5 2678 878.5 2632.44 878.5 2595.5 841.564 2595.5 796Z" stroke="#042433" stroke-width="6.875" stroke-linecap="butt" stroke-linejoin="miter" stroke-miterlimit="8" stroke-opacity="1" fill="#E59EDD" fill-rule="evenodd" fill-opacity="1"/><g><g><g><path d="M2717.89 752.531C2713.59 752.531 2710.16 755.969 2710.16 760.094 2710.16 760.094 2710.16 760.094 2710.16 760.094L2710.16 793.781C2710.16 794.812 2709.47 795.5 2708.44 795.5 2707.41 795.5 2706.72 794.812 2706.72 793.781L2706.72 743.422C2706.72 739.297 2703.8 735.859 2699.67 735.344 2695.03 734.828 2691.25 738.437 2691.25 743.078L2691.25 793.781C2691.25 794.812 2690.56 795.5 2689.53 795.5 2688.5 795.5 2687.81 794.812 2687.81 793.781L2687.81 732.594C2687.64 728.297 2684.03 725.031 2679.91 725.203 2675.78 725.203 2672.52 728.469 2672.34 732.594L2672.34 793.781C2672.34 794.812 2671.66 795.5 2670.62 795.5 2669.59 795.5 2668.91 794.812 2668.91 793.781L2668.91 743.078C2668.73 738.781 2665.12 735.516 2661 735.687 2656.88 735.859 2653.61 739.125 2653.61 743.078L2653.61 812C2653.61 812.172 2653.27 812.172 2653.27 812L2646.39 781.75C2645.36 777.109 2640.72 774.187 2636.08 775.219 2631.44 776.25 2628.52 780.891 2629.55 785.531L2639.86 831.937C2640.38 833.828 2641.58 835.547 2643.12 836.75L2662.03 851.359 2662.03 864.25 2711.88 864.25 2711.88 855.656C2711.88 843.453 2725.62 842.594 2725.62 819.562L2725.62 760.266C2725.62 755.969 2722.19 752.531 2717.89 752.531 2717.89 752.531 2717.89 752.531 2717.89 752.531Z" fill="#000000" fill-rule="nonzero" fill-opacity="1"/></g></g></g></g></g></svg>