<svg width="98" height="97" xmlns="http://www.w3.org/2000/svg" xmlns:xlink="http://www.w3.org/1999/xlink" xml:space="preserve" overflow="hidden"><g transform="translate(-782 -436)"><g><g><g><g><path d="M807.5 460C810 460 812 462 812 464.5L812 484C812 484.5 812.5 485 813 485 813.5 485 814 484.5 814 484L814 454.5C814 452 816 450 818.5 450 821 450 823 452 823 454.5L823 484C823 484.5 823.5 485 824 485 824.5 485 825 484.5 825 484L825 448.4C825 446 827 444 829.5 444 832 444 834 446 834 448.4L834 484C834 484.5 834.5 485 835 485 835.5 485 836 484.5 836 484L836 454.5C836 452 838 450 840.5 450 843 450 845 452 845 454.5L845 484 845 495.5 849.1 477C849.7 474.3 852.4 472.6 855.1 473.2 857.8 473.8 859.5 476.5 858.9 479.2L852.9 506.2C852.6 507.2 852 508.2 851 509L840 517.5 840 525 811 525 811 520C811 512.9 803 512.4 803 499 803 498.5 803 464.5 803 464.5 803 462 805 460 807.5 460Z" fill="#000000" fill-rule="nonzero" fill-opacity="1"/></g></g></g></g></g></svg>